<svg width="22" height="24" viewBox="0 0 22 24" fill="none" xmlns="http://www.w3.org/2000/svg">
<path d="M8.06827 23.0625C8.06827 23.5802 7.64855 24 7.13077 24H3.99535C1.92761 24 0.245361 22.3177 0.245361 20.25V3.74999C0.245361 1.68225 1.92761 0 3.99535 0H15.5214C17.5891 0 19.2714 1.68225 19.2714 3.74999V9.51561C19.2714 10.0334 18.8517 10.4531 18.3339 10.4531C17.8161 10.4531 17.3964 10.0334 17.3964 9.51561V3.74999C17.3964 2.71612 16.5553 1.875 15.5214 1.875H3.99535C2.96148 1.875 2.12036 2.71612 2.12036 3.74999V20.25C2.12036 21.2838 2.96148 22.125 3.99535 22.125H7.13077C7.64855 22.125 8.06827 22.5447 8.06827 23.0625ZM4.92765 13.3593C4.40987 13.3593 3.99015 13.7791 3.99015 14.2968C3.99015 14.8146 4.40987 15.2343 4.92765 15.2343H12.5214C13.0392 15.2343 13.4589 14.8146 13.4589 14.2968C13.4589 13.7791 13.0392 13.3593 12.5214 13.3593H4.92765ZM8.91722 17.1093H4.92765C4.40987 17.1093 3.99015 17.5291 3.99015 18.0468C3.99015 18.5646 4.40987 18.9843 4.92765 18.9843H8.91722C9.435 18.9843 9.85472 18.5646 9.85472 18.0468C9.85472 17.5291 9.435 17.1093 8.91722 17.1093ZM20.932 17.5512L15.7957 22.6778C15.6814 22.7919 15.5394 22.8745 15.3837 22.9177L11.5997 23.9659C11.5171 23.9888 11.433 24 11.3495 24C11.1003 24 10.8573 23.9005 10.6785 23.7172C10.4397 23.4724 10.3531 23.1171 10.4525 22.79L11.5733 19.0998C11.6182 18.952 11.6989 18.8176 11.8082 18.7086L16.9553 13.573C18.0511 12.4772 19.8354 12.4772 20.932 13.5737C22.0286 14.6703 22.0286 16.4546 20.932 17.5512ZM18.098 17.7306L16.772 16.4046L13.2991 19.8698L12.7419 21.7039L14.6456 21.1766L18.098 17.7306ZM19.6061 14.8996C19.2406 14.534 18.6458 14.534 18.2803 14.8996L18.0993 15.0802L19.4252 16.406L19.6068 16.2247C19.9717 15.8598 19.9717 15.2651 19.6061 14.8996ZM14.2558 6.68258C14.2558 8.34134 12.8653 9.37189 11.748 10.1999C11.2565 10.5642 10.7922 10.9084 10.5311 11.2307C10.3531 11.4504 10.0854 11.5781 9.80264 11.5781C9.51984 11.5781 9.25214 11.4504 9.07416 11.2307C8.81311 10.9084 8.34877 10.5642 7.85724 10.1999C6.73997 9.37189 5.34952 8.34134 5.34952 6.68258C5.34952 5.89185 5.62913 5.17499 6.13688 4.66401C6.63244 4.16526 7.31007 3.89062 8.04483 3.89062C8.80228 3.89062 9.37992 4.13549 9.80264 4.49123C10.2253 4.13549 10.803 3.89062 11.5604 3.89062C12.2952 3.89062 12.9728 4.16526 13.4684 4.66401C13.9761 5.17494 14.2558 5.8918 14.2558 6.68258ZM12.3808 6.68258C12.3808 6.10841 12.0741 5.76561 11.5604 5.76561C11.1405 5.76561 10.9818 5.91955 10.8904 6.05371C10.7756 6.22236 10.7427 6.41399 10.7369 6.45346C10.7109 6.95099 10.3018 7.34192 9.80264 7.34192C9.30347 7.34192 8.89435 6.95099 8.86838 6.45346C8.86261 6.41394 8.82971 6.22232 8.71486 6.05371C8.6235 5.9196 8.46478 5.76561 8.04483 5.76561C7.53118 5.76561 7.22452 6.10841 7.22452 6.68258C7.22452 7.39719 8.11374 8.05625 8.97366 8.69356C9.25303 8.90061 9.53714 9.11122 9.80264 9.33261C10.0681 9.11122 10.3522 8.90061 10.6316 8.69356C11.4915 8.0562 12.3808 7.39719 12.3808 6.68258Z" fill="black"/>
</svg>
