<svg width="31" height="31" viewBox="0 0 31 31" fill="none" xmlns="http://www.w3.org/2000/svg">
<path fill-rule="evenodd" clip-rule="evenodd" d="M15.625 29.25C8.03108 29.25 1.875 23.0939 1.875 15.5C1.875 7.90608 8.03108 1.75 15.625 1.75C23.2189 1.75 29.375 7.90608 29.375 15.5C29.375 23.0939 23.2189 29.25 15.625 29.25ZM24.8744 21.9058C26.1358 20.0879 26.875 17.8803 26.875 15.5C26.875 9.2868 21.8382 4.25 15.625 4.25C9.4118 4.25 4.375 9.2868 4.375 15.5C4.375 17.8803 5.11423 20.0879 6.37563 21.9058C7.78244 20.0476 11.0883 19.25 15.625 19.25C20.1617 19.25 23.4676 20.0476 24.8744 21.9058ZM23.0809 23.9247C22.715 22.6092 20.0867 21.75 15.625 21.75C11.1633 21.75 8.535 22.6092 8.16915 23.9247C10.1541 25.6827 12.7649 26.75 15.625 26.75C18.4851 26.75 21.0959 25.6827 23.0809 23.9247ZM15.625 8C12.5989 8 10.625 10.1947 10.625 13C10.625 17.2842 12.8261 19.25 15.625 19.25C18.3976 19.25 20.625 17.3495 20.625 13.25C20.625 10.402 18.6427 8 15.625 8ZM13.125 13C13.125 15.8366 14.1478 16.75 15.625 16.75C17.0971 16.75 18.125 15.873 18.125 13.25C18.125 11.688 17.1446 10.5 15.625 10.5C14.0422 10.5 13.125 11.5198 13.125 13Z" fill="#0B0D17"/>
</svg>
